G75*
G70*
%OFA0B0*%
%FSLAX24Y24*%
%IPPOS*%
%LPD*%
%AMOC8*
5,1,8,0,0,1.08239X$1,22.5*
%
%ADD10OC8,0.0660*%
%ADD11OC8,0.0560*%
%ADD12C,0.0104*%
%ADD13C,0.0200*%
%ADD14C,0.0300*%
%ADD15C,0.0300*%
%ADD16C,0.0100*%
D10*
X011939Y002461D03*
X010939Y002461D03*
D11*
X010939Y006461D03*
X010939Y007461D03*
X010939Y008461D03*
X010939Y009461D03*
X011939Y010461D03*
X011939Y011461D03*
X010439Y014961D03*
X010439Y015961D03*
X009439Y015961D03*
X009439Y014961D03*
X008439Y014961D03*
X008439Y015961D03*
X007439Y015961D03*
X007439Y014961D03*
X006439Y014961D03*
X006439Y015961D03*
X005439Y015961D03*
X005439Y014961D03*
X004439Y014961D03*
X004439Y015961D03*
D12*
X006702Y009021D02*
X006650Y009073D01*
X006822Y009073D01*
X006943Y008952D01*
X006943Y008780D01*
X006822Y008659D01*
X006650Y008659D01*
X006529Y008780D01*
X006529Y008952D01*
X006650Y009073D01*
X006682Y008995D01*
X006790Y008995D01*
X006865Y008920D01*
X006865Y008812D01*
X006790Y008737D01*
X006682Y008737D01*
X006607Y008812D01*
X006607Y008920D01*
X006682Y008995D01*
X006715Y008917D01*
X006757Y008917D01*
X006787Y008887D01*
X006787Y008845D01*
X006757Y008815D01*
X006715Y008815D01*
X006685Y008845D01*
X006685Y008887D01*
X006715Y008917D01*
X006702Y007607D02*
X006650Y007659D01*
X006822Y007659D01*
X006943Y007538D01*
X006943Y007366D01*
X006822Y007245D01*
X006650Y007245D01*
X006529Y007366D01*
X006529Y007538D01*
X006650Y007659D01*
X006682Y007581D01*
X006790Y007581D01*
X006865Y007506D01*
X006865Y007398D01*
X006790Y007323D01*
X006682Y007323D01*
X006607Y007398D01*
X006607Y007506D01*
X006682Y007581D01*
X006715Y007503D01*
X006757Y007503D01*
X006787Y007473D01*
X006787Y007431D01*
X006757Y007401D01*
X006715Y007401D01*
X006685Y007431D01*
X006685Y007473D01*
X006715Y007503D01*
X008116Y009021D02*
X008064Y009073D01*
X008236Y009073D01*
X008357Y008952D01*
X008357Y008780D01*
X008236Y008659D01*
X008064Y008659D01*
X007943Y008780D01*
X007943Y008952D01*
X008064Y009073D01*
X008096Y008995D01*
X008204Y008995D01*
X008279Y008920D01*
X008279Y008812D01*
X008204Y008737D01*
X008096Y008737D01*
X008021Y008812D01*
X008021Y008920D01*
X008096Y008995D01*
X008129Y008917D01*
X008171Y008917D01*
X008201Y008887D01*
X008201Y008845D01*
X008171Y008815D01*
X008129Y008815D01*
X008099Y008845D01*
X008099Y008887D01*
X008129Y008917D01*
D13*
X005239Y010997D02*
X005339Y011097D01*
X005339Y010765D01*
X005106Y010532D01*
X004774Y010532D01*
X004541Y010765D01*
X004541Y011097D01*
X004774Y011330D01*
X005106Y011330D01*
X005339Y011097D01*
X005189Y011034D01*
X005189Y010828D01*
X005043Y010682D01*
X004837Y010682D01*
X004691Y010828D01*
X004691Y011034D01*
X004837Y011180D01*
X005043Y011180D01*
X005189Y011034D01*
X005039Y010972D01*
X005039Y010890D01*
X004981Y010832D01*
X004899Y010832D01*
X004841Y010890D01*
X004841Y010972D01*
X004899Y011030D01*
X004981Y011030D01*
X005039Y010972D01*
D14*
X011046Y005372D02*
X011196Y005522D01*
X011196Y005026D01*
X010845Y004675D01*
X010349Y004675D01*
X009998Y005026D01*
X009998Y005522D01*
X010349Y005873D01*
X010845Y005873D01*
X011196Y005522D01*
X010971Y005429D01*
X010971Y005119D01*
X010752Y004900D01*
X010442Y004900D01*
X010223Y005119D01*
X010223Y005429D01*
X010442Y005648D01*
X010752Y005648D01*
X010971Y005429D01*
X010746Y005336D01*
X010746Y005212D01*
X010659Y005125D01*
X010535Y005125D01*
X010448Y005212D01*
X010448Y005336D01*
X010535Y005423D01*
X010659Y005423D01*
X010746Y005336D01*
D15*
X011469Y004151D03*
X011739Y006961D03*
X009639Y009461D03*
X008339Y010061D03*
X009239Y011861D03*
X010039Y011761D03*
X011339Y012561D03*
X011339Y013161D03*
X006139Y005361D03*
X009239Y002661D03*
D16*
X002439Y001446D02*
X002439Y007683D01*
X002531Y007591D01*
X002778Y007489D01*
X003045Y007489D01*
X003292Y007591D01*
X003482Y007780D01*
X003584Y008028D01*
X003584Y008295D01*
X003482Y008542D01*
X003292Y008731D01*
X003045Y008834D01*
X002778Y008834D01*
X002531Y008731D01*
X002439Y008640D01*
X002439Y017246D01*
X012439Y017246D01*
X012439Y008640D01*
X012348Y008731D01*
X012100Y008834D01*
X011833Y008834D01*
X011586Y008731D01*
X011396Y008542D01*
X011389Y008524D01*
X011389Y008648D01*
X011125Y008911D01*
X010753Y008911D01*
X010489Y008648D01*
X010489Y008275D01*
X010753Y008011D01*
X011125Y008011D01*
X011294Y008180D01*
X011294Y008028D01*
X011396Y007780D01*
X011586Y007591D01*
X011833Y007489D01*
X012100Y007489D01*
X012348Y007591D01*
X012439Y007683D01*
X012439Y001446D01*
X002439Y001446D01*
X002439Y001461D02*
X012439Y001461D01*
X012439Y001560D02*
X002439Y001560D01*
X002439Y001659D02*
X012439Y001659D01*
X012439Y001757D02*
X002439Y001757D01*
X002439Y001856D02*
X012439Y001856D01*
X012439Y001954D02*
X002439Y001954D01*
X002439Y002053D02*
X010641Y002053D01*
X010732Y001961D02*
X010439Y002254D01*
X010439Y002669D01*
X010732Y002961D01*
X011146Y002961D01*
X011439Y002669D01*
X011439Y002254D01*
X011732Y001961D01*
X012146Y001961D01*
X012439Y002254D01*
X012439Y002669D01*
X012146Y002961D01*
X011732Y002961D01*
X011439Y002669D01*
X011439Y002254D01*
X011146Y001961D01*
X010732Y001961D01*
X010542Y002151D02*
X002439Y002151D01*
X002439Y002250D02*
X010444Y002250D01*
X010439Y002348D02*
X002439Y002348D01*
X002439Y002447D02*
X010439Y002447D01*
X010439Y002545D02*
X002439Y002545D01*
X002439Y002644D02*
X010439Y002644D01*
X010513Y002742D02*
X002439Y002742D01*
X002439Y002841D02*
X010612Y002841D01*
X010710Y002940D02*
X002439Y002940D01*
X002439Y003038D02*
X007120Y003038D01*
X007058Y003064D02*
X007305Y002961D01*
X007573Y002961D01*
X007820Y003064D01*
X008009Y003253D01*
X008111Y003500D01*
X008111Y003768D01*
X008009Y004015D01*
X007820Y004204D01*
X007573Y004306D01*
X007305Y004306D01*
X007058Y004204D01*
X006869Y004015D01*
X006767Y003768D01*
X006767Y003500D01*
X006869Y003253D01*
X007058Y003064D01*
X006985Y003137D02*
X002439Y003137D01*
X002439Y003235D02*
X006887Y003235D01*
X006835Y003334D02*
X002439Y003334D01*
X002439Y003432D02*
X006795Y003432D01*
X006767Y003531D02*
X002439Y003531D01*
X002439Y003629D02*
X006767Y003629D01*
X006767Y003728D02*
X002439Y003728D01*
X002439Y003826D02*
X006791Y003826D01*
X006832Y003925D02*
X002439Y003925D01*
X002439Y004024D02*
X006878Y004024D01*
X006976Y004122D02*
X002439Y004122D01*
X002439Y004221D02*
X007098Y004221D01*
X007780Y004221D02*
X012439Y004221D01*
X012439Y004319D02*
X002439Y004319D01*
X002439Y004418D02*
X010152Y004418D01*
X010216Y004354D02*
X010978Y004354D01*
X011517Y004893D01*
X011517Y005655D01*
X011143Y006029D01*
X011389Y006275D01*
X011389Y006648D01*
X011295Y006741D01*
X011506Y006741D01*
X011558Y006690D01*
X011675Y006641D01*
X011803Y006641D01*
X011920Y006690D01*
X012010Y006780D01*
X012059Y006898D01*
X012059Y007025D01*
X012010Y007143D01*
X011920Y007233D01*
X011803Y007281D01*
X011675Y007281D01*
X011558Y007233D01*
X011506Y007181D01*
X011295Y007181D01*
X011389Y007275D01*
X011389Y007648D01*
X011125Y007911D01*
X010753Y007911D01*
X010489Y007648D01*
X010489Y007275D01*
X010583Y007181D01*
X009730Y007181D01*
X009659Y007253D01*
X009659Y009141D01*
X009703Y009141D01*
X009820Y009190D01*
X009910Y009280D01*
X009959Y009398D01*
X009959Y009525D01*
X009910Y009643D01*
X009820Y009733D01*
X009703Y009781D01*
X009575Y009781D01*
X009458Y009733D01*
X009368Y009643D01*
X009338Y009572D01*
X009319Y009553D01*
X009219Y009453D01*
X009219Y009270D01*
X009219Y007070D01*
X009348Y006941D01*
X009548Y006741D01*
X009730Y006741D01*
X010583Y006741D01*
X010489Y006648D01*
X010489Y006275D01*
X010570Y006194D01*
X010216Y006194D01*
X009677Y005655D01*
X009677Y004893D01*
X010216Y004354D01*
X010054Y004516D02*
X002439Y004516D01*
X002439Y004615D02*
X009955Y004615D01*
X009857Y004713D02*
X002439Y004713D01*
X002439Y004812D02*
X009758Y004812D01*
X009677Y004910D02*
X002439Y004910D01*
X002439Y005009D02*
X009677Y005009D01*
X009677Y005108D02*
X002439Y005108D01*
X002439Y005206D02*
X009677Y005206D01*
X009677Y005305D02*
X002439Y005305D01*
X002439Y005403D02*
X009677Y005403D01*
X009677Y005502D02*
X002439Y005502D01*
X002439Y005600D02*
X009677Y005600D01*
X009720Y005699D02*
X002439Y005699D01*
X002439Y005797D02*
X009819Y005797D01*
X009917Y005896D02*
X002439Y005896D01*
X002439Y005994D02*
X010016Y005994D01*
X010114Y006093D02*
X002439Y006093D01*
X002439Y006191D02*
X010213Y006191D01*
X010489Y006290D02*
X002439Y006290D01*
X002439Y006389D02*
X010489Y006389D01*
X010489Y006487D02*
X002439Y006487D01*
X002439Y006586D02*
X010489Y006586D01*
X010526Y006684D02*
X002439Y006684D01*
X002439Y006783D02*
X009507Y006783D01*
X009408Y006881D02*
X002439Y006881D01*
X002439Y006980D02*
X009309Y006980D01*
X009219Y007078D02*
X006942Y007078D01*
X006905Y007042D02*
X007004Y007141D01*
X006736Y007409D01*
X006778Y007452D01*
X006736Y007495D01*
X007004Y007763D01*
X006905Y007862D01*
X006566Y007862D01*
X006467Y007763D01*
X006735Y007495D01*
X006693Y007452D01*
X006424Y007721D01*
X006326Y007622D01*
X006326Y007282D01*
X006424Y007183D01*
X006693Y007452D01*
X006735Y007409D01*
X006467Y007141D01*
X006566Y007042D01*
X006905Y007042D01*
X006968Y007177D02*
X009219Y007177D01*
X009219Y007275D02*
X007139Y007275D01*
X007145Y007282D02*
X007145Y007622D01*
X007047Y007721D01*
X006778Y007452D01*
X007047Y007183D01*
X007145Y007282D01*
X007145Y007374D02*
X009219Y007374D01*
X009219Y007473D02*
X007145Y007473D01*
X007145Y007571D02*
X009219Y007571D01*
X009219Y007670D02*
X007098Y007670D01*
X006996Y007670D02*
X006911Y007670D01*
X006897Y007571D02*
X006812Y007571D01*
X006799Y007473D02*
X006758Y007473D01*
X006713Y007473D02*
X006672Y007473D01*
X006659Y007571D02*
X006574Y007571D01*
X006560Y007670D02*
X006475Y007670D01*
X006472Y007768D02*
X003469Y007768D01*
X003517Y007867D02*
X009219Y007867D01*
X009219Y007965D02*
X003558Y007965D01*
X003584Y008064D02*
X009219Y008064D01*
X009219Y008162D02*
X003584Y008162D01*
X003584Y008261D02*
X009219Y008261D01*
X009219Y008359D02*
X003557Y008359D01*
X003517Y008458D02*
X006536Y008458D01*
X006557Y008436D02*
X006914Y008436D01*
X007166Y008688D01*
X007166Y009044D01*
X006914Y009296D01*
X006557Y009296D01*
X006306Y009044D01*
X006306Y008688D01*
X006557Y008436D01*
X006437Y008557D02*
X003467Y008557D01*
X003369Y008655D02*
X006339Y008655D01*
X006306Y008754D02*
X003239Y008754D01*
X002584Y008754D02*
X002439Y008754D01*
X002439Y008852D02*
X006306Y008852D01*
X006306Y008951D02*
X002439Y008951D01*
X002439Y009049D02*
X006311Y009049D01*
X006409Y009148D02*
X002439Y009148D01*
X002439Y009246D02*
X006508Y009246D01*
X006963Y009246D02*
X007922Y009246D01*
X007971Y009296D02*
X008163Y009296D01*
X009819Y010953D01*
X009819Y011529D01*
X009768Y011580D01*
X009719Y011698D01*
X009719Y011825D01*
X009768Y011943D01*
X009858Y012033D01*
X009975Y012081D01*
X010103Y012081D01*
X010220Y012033D01*
X010310Y011943D01*
X010359Y011825D01*
X010359Y011698D01*
X010310Y011580D01*
X010259Y011529D01*
X010259Y010770D01*
X010130Y010641D01*
X008556Y009068D01*
X008579Y009044D01*
X008579Y008688D01*
X008328Y008436D01*
X007971Y008436D01*
X007720Y008688D01*
X007720Y009044D01*
X007971Y009296D01*
X007823Y009148D02*
X007062Y009148D01*
X007161Y009049D02*
X007725Y009049D01*
X007720Y008951D02*
X007166Y008951D01*
X007166Y008852D02*
X007720Y008852D01*
X007720Y008754D02*
X007166Y008754D01*
X007133Y008655D02*
X007753Y008655D01*
X007851Y008557D02*
X007034Y008557D01*
X006936Y008458D02*
X007950Y008458D01*
X008150Y008866D02*
X008150Y008972D01*
X010039Y010861D01*
X010039Y011761D01*
X009755Y011611D02*
X009459Y011611D01*
X009459Y011629D02*
X009510Y011680D01*
X009559Y011798D01*
X009559Y011925D01*
X009510Y012043D01*
X009420Y012133D01*
X009303Y012181D01*
X009175Y012181D01*
X009058Y012133D01*
X008968Y012043D01*
X008919Y011925D01*
X008919Y011798D01*
X008968Y011680D01*
X009019Y011629D01*
X009019Y011053D01*
X008348Y010381D01*
X008275Y010381D01*
X008158Y010333D01*
X008068Y010243D01*
X008019Y010125D01*
X008019Y009998D01*
X008068Y009880D01*
X008158Y009790D01*
X008275Y009741D01*
X008403Y009741D01*
X008520Y009790D01*
X008610Y009880D01*
X008659Y009998D01*
X008659Y010070D01*
X009330Y010741D01*
X009459Y010870D01*
X009459Y011629D01*
X009523Y011710D02*
X009719Y011710D01*
X009719Y011808D02*
X009559Y011808D01*
X009559Y011907D02*
X009753Y011907D01*
X009831Y012006D02*
X009526Y012006D01*
X009449Y012104D02*
X012439Y012104D01*
X012439Y012006D02*
X010247Y012006D01*
X010325Y011907D02*
X011748Y011907D01*
X011753Y011911D02*
X011489Y011648D01*
X011489Y011275D01*
X011753Y011011D01*
X012125Y011011D01*
X012389Y011275D01*
X012389Y011648D01*
X012125Y011911D01*
X011753Y011911D01*
X011650Y011808D02*
X010359Y011808D01*
X010359Y011710D02*
X011551Y011710D01*
X011489Y011611D02*
X010323Y011611D01*
X010259Y011513D02*
X011489Y011513D01*
X011489Y011414D02*
X010259Y011414D01*
X010259Y011316D02*
X011489Y011316D01*
X011547Y011217D02*
X010259Y011217D01*
X010259Y011119D02*
X011645Y011119D01*
X011744Y011020D02*
X010259Y011020D01*
X010259Y010922D02*
X012439Y010922D01*
X012439Y011020D02*
X012134Y011020D01*
X012125Y010911D02*
X011753Y010911D01*
X011489Y010648D01*
X011489Y010275D01*
X011753Y010011D01*
X012125Y010011D01*
X012389Y010275D01*
X012389Y010648D01*
X012125Y010911D01*
X012214Y010823D02*
X012439Y010823D01*
X012439Y010724D02*
X012312Y010724D01*
X012389Y010626D02*
X012439Y010626D01*
X012439Y010527D02*
X012389Y010527D01*
X012389Y010429D02*
X012439Y010429D01*
X012439Y010330D02*
X012389Y010330D01*
X012346Y010232D02*
X012439Y010232D01*
X012439Y010133D02*
X012247Y010133D01*
X012149Y010035D02*
X012439Y010035D01*
X012439Y009936D02*
X009425Y009936D01*
X009326Y009838D02*
X010707Y009838D01*
X010761Y009891D02*
X010509Y009639D01*
X010509Y009501D01*
X010899Y009501D01*
X010899Y009421D01*
X010979Y009421D01*
X010979Y009031D01*
X011117Y009031D01*
X011369Y009283D01*
X011369Y009421D01*
X010979Y009421D01*
X010979Y009501D01*
X011369Y009501D01*
X011369Y009639D01*
X011117Y009891D01*
X010979Y009891D01*
X010979Y009502D01*
X010899Y009502D01*
X010899Y009891D01*
X010761Y009891D01*
X010899Y009838D02*
X010979Y009838D01*
X010979Y009739D02*
X010899Y009739D01*
X010899Y009641D02*
X010979Y009641D01*
X010979Y009542D02*
X010899Y009542D01*
X010899Y009443D02*
X009959Y009443D01*
X009952Y009542D02*
X010509Y009542D01*
X010510Y009641D02*
X009911Y009641D01*
X009805Y009739D02*
X010609Y009739D01*
X010509Y009421D02*
X010509Y009283D01*
X010761Y009031D01*
X010899Y009031D01*
X010899Y009421D01*
X010509Y009421D01*
X010509Y009345D02*
X009937Y009345D01*
X009877Y009246D02*
X010546Y009246D01*
X010645Y009148D02*
X009718Y009148D01*
X009659Y009049D02*
X010743Y009049D01*
X010899Y009049D02*
X010979Y009049D01*
X010979Y009148D02*
X010899Y009148D01*
X010899Y009246D02*
X010979Y009246D01*
X010979Y009345D02*
X010899Y009345D01*
X010979Y009443D02*
X012439Y009443D01*
X012439Y009345D02*
X011369Y009345D01*
X011332Y009246D02*
X012439Y009246D01*
X012439Y009148D02*
X011234Y009148D01*
X011135Y009049D02*
X012439Y009049D01*
X012439Y008951D02*
X009659Y008951D01*
X009659Y008852D02*
X010693Y008852D01*
X010595Y008754D02*
X009659Y008754D01*
X009659Y008655D02*
X010496Y008655D01*
X010489Y008557D02*
X009659Y008557D01*
X009659Y008458D02*
X010489Y008458D01*
X010489Y008359D02*
X009659Y008359D01*
X009659Y008261D02*
X010503Y008261D01*
X010602Y008162D02*
X009659Y008162D01*
X009659Y008064D02*
X010700Y008064D01*
X010708Y007867D02*
X009659Y007867D01*
X009659Y007965D02*
X011320Y007965D01*
X011294Y008064D02*
X011178Y008064D01*
X011276Y008162D02*
X011294Y008162D01*
X011361Y007867D02*
X011170Y007867D01*
X011269Y007768D02*
X011409Y007768D01*
X011367Y007670D02*
X011507Y007670D01*
X011389Y007571D02*
X011634Y007571D01*
X011389Y007473D02*
X012439Y007473D01*
X012439Y007571D02*
X012299Y007571D01*
X012426Y007670D02*
X012439Y007670D01*
X012439Y007374D02*
X011389Y007374D01*
X011389Y007275D02*
X011661Y007275D01*
X011817Y007275D02*
X012439Y007275D01*
X012439Y007177D02*
X011976Y007177D01*
X012037Y007078D02*
X012439Y007078D01*
X012439Y006980D02*
X012059Y006980D01*
X012052Y006881D02*
X012439Y006881D01*
X012439Y006783D02*
X012011Y006783D01*
X011906Y006684D02*
X012439Y006684D01*
X012439Y006586D02*
X011389Y006586D01*
X011389Y006487D02*
X012439Y006487D01*
X012439Y006389D02*
X011389Y006389D01*
X011389Y006290D02*
X012439Y006290D01*
X012439Y006191D02*
X011305Y006191D01*
X011207Y006093D02*
X012439Y006093D01*
X012439Y005994D02*
X011178Y005994D01*
X011276Y005896D02*
X012439Y005896D01*
X012439Y005797D02*
X011375Y005797D01*
X011473Y005699D02*
X012439Y005699D01*
X012439Y005600D02*
X011517Y005600D01*
X011517Y005502D02*
X012439Y005502D01*
X012439Y005403D02*
X011517Y005403D01*
X011517Y005305D02*
X012439Y005305D01*
X012439Y005206D02*
X011517Y005206D01*
X011517Y005108D02*
X012439Y005108D01*
X012439Y005009D02*
X011517Y005009D01*
X011517Y004910D02*
X012439Y004910D01*
X012439Y004812D02*
X011435Y004812D01*
X011337Y004713D02*
X012439Y004713D01*
X012439Y004615D02*
X011238Y004615D01*
X011140Y004516D02*
X012439Y004516D01*
X012439Y004418D02*
X011041Y004418D01*
X011168Y002940D02*
X011710Y002940D01*
X011612Y002841D02*
X011266Y002841D01*
X011365Y002742D02*
X011513Y002742D01*
X011439Y002644D02*
X011439Y002644D01*
X011439Y002545D02*
X011439Y002545D01*
X011439Y002447D02*
X011439Y002447D01*
X011439Y002348D02*
X011439Y002348D01*
X011434Y002250D02*
X011444Y002250D01*
X011542Y002151D02*
X011336Y002151D01*
X011237Y002053D02*
X011641Y002053D01*
X012237Y002053D02*
X012439Y002053D01*
X012439Y002151D02*
X012336Y002151D01*
X012434Y002250D02*
X012439Y002250D01*
X012439Y002348D02*
X012439Y002348D01*
X012439Y002447D02*
X012439Y002447D01*
X012439Y002545D02*
X012439Y002545D01*
X012439Y002644D02*
X012439Y002644D01*
X012439Y002742D02*
X012365Y002742D01*
X012439Y002841D02*
X012266Y002841D01*
X012168Y002940D02*
X012439Y002940D01*
X012439Y003038D02*
X007758Y003038D01*
X007893Y003137D02*
X012439Y003137D01*
X012439Y003235D02*
X007991Y003235D01*
X008043Y003334D02*
X012439Y003334D01*
X012439Y003432D02*
X008083Y003432D01*
X008111Y003531D02*
X012439Y003531D01*
X012439Y003629D02*
X008111Y003629D01*
X008111Y003728D02*
X012439Y003728D01*
X012439Y003826D02*
X008087Y003826D01*
X008046Y003925D02*
X012439Y003925D01*
X012439Y004024D02*
X008000Y004024D01*
X007902Y004122D02*
X012439Y004122D01*
X011572Y006684D02*
X011353Y006684D01*
X011739Y006961D02*
X009639Y006961D01*
X009439Y007161D01*
X009439Y009361D01*
X009539Y009461D01*
X009639Y009461D01*
X009473Y009739D02*
X009228Y009739D01*
X009129Y009641D02*
X009367Y009641D01*
X009309Y009542D02*
X009031Y009542D01*
X008932Y009443D02*
X009219Y009443D01*
X009219Y009345D02*
X008834Y009345D01*
X008735Y009246D02*
X009219Y009246D01*
X009219Y009148D02*
X008636Y009148D01*
X008574Y009049D02*
X009219Y009049D01*
X009219Y008951D02*
X008579Y008951D01*
X008579Y008852D02*
X009219Y008852D01*
X009219Y008754D02*
X008579Y008754D01*
X008547Y008655D02*
X009219Y008655D01*
X009219Y008557D02*
X008448Y008557D01*
X008349Y008458D02*
X009219Y008458D01*
X009219Y007768D02*
X006999Y007768D01*
X006856Y007374D02*
X006771Y007374D01*
X006700Y007374D02*
X006615Y007374D01*
X006602Y007275D02*
X006516Y007275D01*
X006503Y007177D02*
X002439Y007177D01*
X002439Y007275D02*
X006332Y007275D01*
X006326Y007374D02*
X002439Y007374D01*
X002439Y007473D02*
X006326Y007473D01*
X006326Y007571D02*
X003244Y007571D01*
X003371Y007670D02*
X006373Y007670D01*
X006529Y007078D02*
X002439Y007078D01*
X002439Y007571D02*
X002579Y007571D01*
X002452Y007670D02*
X002439Y007670D01*
X002439Y008655D02*
X002454Y008655D01*
X002439Y009345D02*
X008211Y009345D01*
X008310Y009443D02*
X002439Y009443D01*
X002439Y009542D02*
X008409Y009542D01*
X008507Y009641D02*
X002439Y009641D01*
X002439Y009739D02*
X008606Y009739D01*
X008568Y009838D02*
X008704Y009838D01*
X008634Y009936D02*
X008803Y009936D01*
X008901Y010035D02*
X008659Y010035D01*
X008722Y010133D02*
X009000Y010133D01*
X009098Y010232D02*
X008821Y010232D01*
X008919Y010330D02*
X009197Y010330D01*
X009295Y010429D02*
X009018Y010429D01*
X009116Y010527D02*
X009394Y010527D01*
X009493Y010626D02*
X009215Y010626D01*
X009313Y010724D02*
X009591Y010724D01*
X009690Y010823D02*
X009412Y010823D01*
X009459Y010922D02*
X009788Y010922D01*
X009819Y011020D02*
X009459Y011020D01*
X009459Y011119D02*
X009819Y011119D01*
X009819Y011217D02*
X009459Y011217D01*
X009459Y011316D02*
X009819Y011316D01*
X009819Y011414D02*
X009459Y011414D01*
X009459Y011513D02*
X009819Y011513D01*
X010259Y010823D02*
X011664Y010823D01*
X011566Y010724D02*
X010213Y010724D01*
X010115Y010626D02*
X011489Y010626D01*
X011489Y010527D02*
X010016Y010527D01*
X009918Y010429D02*
X011489Y010429D01*
X011489Y010330D02*
X009819Y010330D01*
X009720Y010232D02*
X011532Y010232D01*
X011631Y010133D02*
X009622Y010133D01*
X009523Y010035D02*
X011729Y010035D01*
X011368Y009641D02*
X012439Y009641D01*
X012439Y009739D02*
X011269Y009739D01*
X011171Y009838D02*
X012439Y009838D01*
X012439Y009542D02*
X011369Y009542D01*
X011185Y008852D02*
X012439Y008852D01*
X012439Y008754D02*
X012294Y008754D01*
X012424Y008655D02*
X012439Y008655D01*
X011639Y008754D02*
X011283Y008754D01*
X011382Y008655D02*
X011509Y008655D01*
X011411Y008557D02*
X011389Y008557D01*
X010609Y007768D02*
X009659Y007768D01*
X009659Y007670D02*
X010511Y007670D01*
X010489Y007571D02*
X009659Y007571D01*
X009659Y007473D02*
X010489Y007473D01*
X010489Y007374D02*
X009659Y007374D01*
X009659Y007275D02*
X010489Y007275D01*
X008339Y010061D02*
X009239Y010961D01*
X009239Y011861D01*
X009029Y012104D02*
X007784Y012104D01*
X007820Y012119D02*
X008009Y012308D01*
X008111Y012555D01*
X008111Y012823D01*
X008009Y013070D01*
X007820Y013259D01*
X007573Y013361D01*
X007305Y013361D01*
X007058Y013259D01*
X006869Y013070D01*
X006767Y012823D01*
X006767Y012555D01*
X006869Y012308D01*
X007058Y012119D01*
X007305Y012016D01*
X007573Y012016D01*
X007820Y012119D01*
X007904Y012203D02*
X012439Y012203D01*
X012439Y012301D02*
X008002Y012301D01*
X008047Y012400D02*
X012439Y012400D01*
X012439Y012498D02*
X008088Y012498D01*
X008111Y012597D02*
X012439Y012597D01*
X012439Y012695D02*
X008111Y012695D01*
X008111Y012794D02*
X012439Y012794D01*
X012439Y012892D02*
X008083Y012892D01*
X008042Y012991D02*
X012439Y012991D01*
X012439Y013090D02*
X007989Y013090D01*
X007891Y013188D02*
X012439Y013188D01*
X012439Y013287D02*
X007753Y013287D01*
X007125Y013287D02*
X002439Y013287D01*
X002439Y013385D02*
X012439Y013385D01*
X012439Y013484D02*
X002439Y013484D01*
X002439Y013582D02*
X012439Y013582D01*
X012439Y013681D02*
X002439Y013681D01*
X002439Y013779D02*
X012439Y013779D01*
X012439Y013878D02*
X002439Y013878D01*
X002439Y013976D02*
X012439Y013976D01*
X012439Y014075D02*
X002439Y014075D01*
X002439Y014174D02*
X012439Y014174D01*
X012439Y014272D02*
X002439Y014272D01*
X002439Y014371D02*
X012439Y014371D01*
X012439Y014469D02*
X002439Y014469D01*
X002439Y014568D02*
X004196Y014568D01*
X004253Y014511D02*
X003989Y014775D01*
X003989Y015148D01*
X004253Y015411D01*
X004625Y015411D01*
X004889Y015148D01*
X004889Y014775D01*
X004625Y014511D01*
X004253Y014511D01*
X004098Y014666D02*
X002439Y014666D01*
X002439Y014765D02*
X003999Y014765D01*
X003989Y014863D02*
X002439Y014863D01*
X002439Y014962D02*
X003989Y014962D01*
X003989Y015060D02*
X002439Y015060D01*
X002439Y015159D02*
X004000Y015159D01*
X004099Y015257D02*
X002439Y015257D01*
X002439Y015356D02*
X004197Y015356D01*
X004253Y015511D02*
X004625Y015511D01*
X004889Y015775D01*
X004889Y016148D01*
X004625Y016411D01*
X004253Y016411D01*
X003989Y016148D01*
X003989Y015775D01*
X004253Y015511D01*
X004211Y015553D02*
X002439Y015553D01*
X002439Y015455D02*
X012439Y015455D01*
X012439Y015553D02*
X010667Y015553D01*
X010625Y015511D02*
X010889Y015775D01*
X010889Y016148D01*
X010625Y016411D01*
X010253Y016411D01*
X009989Y016148D01*
X009989Y015775D01*
X010253Y015511D01*
X010625Y015511D01*
X010625Y015411D02*
X010253Y015411D01*
X009989Y015148D01*
X009989Y014775D01*
X010253Y014511D01*
X010625Y014511D01*
X010889Y014775D01*
X010889Y015148D01*
X010625Y015411D01*
X010681Y015356D02*
X012439Y015356D01*
X012439Y015257D02*
X010779Y015257D01*
X010878Y015159D02*
X012439Y015159D01*
X012439Y015060D02*
X010889Y015060D01*
X010889Y014962D02*
X012439Y014962D01*
X012439Y014863D02*
X010889Y014863D01*
X010879Y014765D02*
X012439Y014765D01*
X012439Y014666D02*
X010780Y014666D01*
X010682Y014568D02*
X012439Y014568D01*
X012439Y015652D02*
X010766Y015652D01*
X010864Y015750D02*
X012439Y015750D01*
X012439Y015849D02*
X010889Y015849D01*
X010889Y015947D02*
X012439Y015947D01*
X012439Y016046D02*
X010889Y016046D01*
X010889Y016144D02*
X012439Y016144D01*
X012439Y016243D02*
X010794Y016243D01*
X010695Y016341D02*
X012439Y016341D01*
X012439Y016440D02*
X002439Y016440D01*
X002439Y016341D02*
X004183Y016341D01*
X004084Y016243D02*
X002439Y016243D01*
X002439Y016144D02*
X003989Y016144D01*
X003989Y016046D02*
X002439Y016046D01*
X002439Y015947D02*
X003989Y015947D01*
X003989Y015849D02*
X002439Y015849D01*
X002439Y015750D02*
X004014Y015750D01*
X004112Y015652D02*
X002439Y015652D01*
X002439Y016539D02*
X012439Y016539D01*
X012439Y016637D02*
X002439Y016637D01*
X002439Y016736D02*
X012439Y016736D01*
X012439Y016834D02*
X002439Y016834D01*
X002439Y016933D02*
X012439Y016933D01*
X012439Y017031D02*
X002439Y017031D01*
X002439Y017130D02*
X012439Y017130D01*
X012439Y017228D02*
X002439Y017228D01*
X004695Y016341D02*
X005183Y016341D01*
X005253Y016411D02*
X004989Y016148D01*
X004989Y015775D01*
X005253Y015511D01*
X005625Y015511D01*
X005889Y015775D01*
X005889Y016148D01*
X005625Y016411D01*
X005253Y016411D01*
X005084Y016243D02*
X004794Y016243D01*
X004889Y016144D02*
X004989Y016144D01*
X004989Y016046D02*
X004889Y016046D01*
X004889Y015947D02*
X004989Y015947D01*
X004989Y015849D02*
X004889Y015849D01*
X004864Y015750D02*
X005014Y015750D01*
X005112Y015652D02*
X004766Y015652D01*
X004667Y015553D02*
X005211Y015553D01*
X005253Y015411D02*
X004989Y015148D01*
X004989Y014775D01*
X005253Y014511D01*
X005625Y014511D01*
X005889Y014775D01*
X005889Y015148D01*
X005625Y015411D01*
X005253Y015411D01*
X005197Y015356D02*
X004681Y015356D01*
X004779Y015257D02*
X005099Y015257D01*
X005000Y015159D02*
X004878Y015159D01*
X004889Y015060D02*
X004989Y015060D01*
X004989Y014962D02*
X004889Y014962D01*
X004889Y014863D02*
X004989Y014863D01*
X004999Y014765D02*
X004879Y014765D01*
X004780Y014666D02*
X005098Y014666D01*
X005196Y014568D02*
X004682Y014568D01*
X005682Y014568D02*
X006196Y014568D01*
X006253Y014511D02*
X006625Y014511D01*
X006889Y014775D01*
X006889Y015148D01*
X006625Y015411D01*
X006253Y015411D01*
X005989Y015148D01*
X005989Y014775D01*
X006253Y014511D01*
X006098Y014666D02*
X005780Y014666D01*
X005879Y014765D02*
X005999Y014765D01*
X005989Y014863D02*
X005889Y014863D01*
X005889Y014962D02*
X005989Y014962D01*
X005989Y015060D02*
X005889Y015060D01*
X005878Y015159D02*
X006000Y015159D01*
X006099Y015257D02*
X005779Y015257D01*
X005681Y015356D02*
X006197Y015356D01*
X006261Y015531D02*
X006399Y015531D01*
X006399Y015921D01*
X006479Y015921D01*
X006479Y015531D01*
X006617Y015531D01*
X006869Y015783D01*
X006869Y015921D01*
X006479Y015921D01*
X006479Y016001D01*
X006869Y016001D01*
X006869Y016139D01*
X006617Y016391D01*
X006479Y016391D01*
X006479Y016002D01*
X006399Y016002D01*
X006399Y016391D01*
X006261Y016391D01*
X006009Y016139D01*
X006009Y016001D01*
X006399Y016001D01*
X006399Y015921D01*
X006009Y015921D01*
X006009Y015783D01*
X006261Y015531D01*
X006239Y015553D02*
X005667Y015553D01*
X005766Y015652D02*
X006141Y015652D01*
X006042Y015750D02*
X005864Y015750D01*
X005889Y015849D02*
X006009Y015849D01*
X005889Y015947D02*
X006399Y015947D01*
X006479Y015947D02*
X006989Y015947D01*
X006989Y015849D02*
X006869Y015849D01*
X006836Y015750D02*
X007014Y015750D01*
X006989Y015775D02*
X007253Y015511D01*
X007625Y015511D01*
X007889Y015775D01*
X007889Y016148D01*
X007625Y016411D01*
X007253Y016411D01*
X006989Y016148D01*
X006989Y015775D01*
X007112Y015652D02*
X006737Y015652D01*
X006639Y015553D02*
X007211Y015553D01*
X007253Y015411D02*
X006989Y015148D01*
X006989Y014775D01*
X007253Y014511D01*
X007625Y014511D01*
X007889Y014775D01*
X007889Y015148D01*
X007625Y015411D01*
X007253Y015411D01*
X007197Y015356D02*
X006681Y015356D01*
X006779Y015257D02*
X007099Y015257D01*
X007000Y015159D02*
X006878Y015159D01*
X006889Y015060D02*
X006989Y015060D01*
X006989Y014962D02*
X006889Y014962D01*
X006889Y014863D02*
X006989Y014863D01*
X006999Y014765D02*
X006879Y014765D01*
X006780Y014666D02*
X007098Y014666D01*
X007196Y014568D02*
X006682Y014568D01*
X006479Y015553D02*
X006399Y015553D01*
X006399Y015652D02*
X006479Y015652D01*
X006479Y015750D02*
X006399Y015750D01*
X006399Y015849D02*
X006479Y015849D01*
X006479Y016046D02*
X006399Y016046D01*
X006399Y016144D02*
X006479Y016144D01*
X006479Y016243D02*
X006399Y016243D01*
X006399Y016341D02*
X006479Y016341D01*
X006667Y016341D02*
X007183Y016341D01*
X007084Y016243D02*
X006766Y016243D01*
X006864Y016144D02*
X006989Y016144D01*
X006989Y016046D02*
X006869Y016046D01*
X006211Y016341D02*
X005695Y016341D01*
X005794Y016243D02*
X006112Y016243D01*
X006014Y016144D02*
X005889Y016144D01*
X005889Y016046D02*
X006009Y016046D01*
X007695Y016341D02*
X008183Y016341D01*
X008253Y016411D02*
X007989Y016148D01*
X007989Y015775D01*
X008253Y015511D01*
X008625Y015511D01*
X008889Y015775D01*
X008889Y016148D01*
X008625Y016411D01*
X008253Y016411D01*
X008084Y016243D02*
X007794Y016243D01*
X007889Y016144D02*
X007989Y016144D01*
X007989Y016046D02*
X007889Y016046D01*
X007889Y015947D02*
X007989Y015947D01*
X007989Y015849D02*
X007889Y015849D01*
X007864Y015750D02*
X008014Y015750D01*
X008112Y015652D02*
X007766Y015652D01*
X007667Y015553D02*
X008211Y015553D01*
X008253Y015411D02*
X007989Y015148D01*
X007989Y014775D01*
X008253Y014511D01*
X008625Y014511D01*
X008889Y014775D01*
X008889Y015148D01*
X008625Y015411D01*
X008253Y015411D01*
X008197Y015356D02*
X007681Y015356D01*
X007779Y015257D02*
X008099Y015257D01*
X008000Y015159D02*
X007878Y015159D01*
X007889Y015060D02*
X007989Y015060D01*
X007989Y014962D02*
X007889Y014962D01*
X007889Y014863D02*
X007989Y014863D01*
X007999Y014765D02*
X007879Y014765D01*
X007780Y014666D02*
X008098Y014666D01*
X008196Y014568D02*
X007682Y014568D01*
X006987Y013188D02*
X002439Y013188D01*
X002439Y013090D02*
X006889Y013090D01*
X006836Y012991D02*
X002439Y012991D01*
X002439Y012892D02*
X006795Y012892D01*
X006767Y012794D02*
X002439Y012794D01*
X002439Y012695D02*
X006767Y012695D01*
X006767Y012597D02*
X002439Y012597D01*
X002439Y012498D02*
X006790Y012498D01*
X006831Y012400D02*
X002439Y012400D01*
X002439Y012301D02*
X006876Y012301D01*
X006974Y012203D02*
X002439Y012203D01*
X002439Y012104D02*
X007094Y012104D01*
X008155Y010330D02*
X005258Y010330D01*
X005209Y010281D02*
X005364Y010436D01*
X004940Y010860D01*
X005011Y010931D01*
X005435Y010507D01*
X005590Y010662D01*
X005590Y011200D01*
X005435Y011355D01*
X005011Y010931D01*
X004940Y011002D01*
X005364Y011426D01*
X005209Y011581D01*
X004671Y011581D01*
X004516Y011426D01*
X004940Y011002D01*
X004869Y010931D01*
X004940Y010860D01*
X004516Y010436D01*
X004671Y010281D01*
X005209Y010281D01*
X005357Y010429D02*
X008395Y010429D01*
X008494Y010527D02*
X005455Y010527D01*
X005414Y010527D02*
X005273Y010527D01*
X005316Y010626D02*
X005174Y010626D01*
X005217Y010724D02*
X005076Y010724D01*
X005119Y010823D02*
X004977Y010823D01*
X004902Y010823D02*
X004761Y010823D01*
X004804Y010724D02*
X004662Y010724D01*
X004705Y010626D02*
X004564Y010626D01*
X004607Y010527D02*
X004465Y010527D01*
X004445Y010507D02*
X004869Y010931D01*
X004445Y011355D01*
X004290Y011200D01*
X004290Y010662D01*
X004445Y010507D01*
X004424Y010527D02*
X002439Y010527D01*
X002439Y010429D02*
X004523Y010429D01*
X004621Y010330D02*
X002439Y010330D01*
X002439Y010232D02*
X008063Y010232D01*
X008022Y010133D02*
X002439Y010133D01*
X002439Y010035D02*
X008019Y010035D01*
X008045Y009936D02*
X002439Y009936D01*
X002439Y009838D02*
X008110Y009838D01*
X008592Y010626D02*
X005554Y010626D01*
X005590Y010724D02*
X008691Y010724D01*
X008790Y010823D02*
X005590Y010823D01*
X005590Y010922D02*
X008888Y010922D01*
X008987Y011020D02*
X005590Y011020D01*
X005590Y011119D02*
X009019Y011119D01*
X009019Y011217D02*
X005573Y011217D01*
X005474Y011316D02*
X009019Y011316D01*
X009019Y011414D02*
X005352Y011414D01*
X005395Y011316D02*
X005254Y011316D01*
X005296Y011217D02*
X005155Y011217D01*
X005198Y011119D02*
X005057Y011119D01*
X005099Y011020D02*
X004958Y011020D01*
X004921Y011020D02*
X004780Y011020D01*
X004823Y011119D02*
X004682Y011119D01*
X004724Y011217D02*
X004583Y011217D01*
X004626Y011316D02*
X004485Y011316D01*
X004405Y011316D02*
X002439Y011316D01*
X002439Y011414D02*
X004527Y011414D01*
X004602Y011513D02*
X002439Y011513D01*
X002439Y011611D02*
X009019Y011611D01*
X009019Y011513D02*
X005277Y011513D01*
X005020Y010922D02*
X005001Y010922D01*
X004879Y010922D02*
X004859Y010922D01*
X004290Y010922D02*
X002439Y010922D01*
X002439Y011020D02*
X004290Y011020D01*
X004290Y011119D02*
X002439Y011119D01*
X002439Y011217D02*
X004307Y011217D01*
X004290Y010823D02*
X002439Y010823D01*
X002439Y010724D02*
X004290Y010724D01*
X004326Y010626D02*
X002439Y010626D01*
X002439Y011710D02*
X008955Y011710D01*
X008919Y011808D02*
X002439Y011808D01*
X002439Y011907D02*
X008919Y011907D01*
X008952Y012006D02*
X002439Y012006D01*
X005939Y005361D02*
X006139Y005361D01*
X006869Y007275D02*
X006954Y007275D01*
X009039Y002861D02*
X009239Y002661D01*
X012233Y011119D02*
X012439Y011119D01*
X012439Y011217D02*
X012331Y011217D01*
X012389Y011316D02*
X012439Y011316D01*
X012439Y011414D02*
X012389Y011414D01*
X012389Y011513D02*
X012439Y011513D01*
X012439Y011611D02*
X012389Y011611D01*
X012439Y011710D02*
X012327Y011710D01*
X012228Y011808D02*
X012439Y011808D01*
X012439Y011907D02*
X012130Y011907D01*
X010196Y014568D02*
X009682Y014568D01*
X009625Y014511D02*
X009889Y014775D01*
X009889Y015148D01*
X009625Y015411D01*
X009253Y015411D01*
X008989Y015148D01*
X008989Y014775D01*
X009253Y014511D01*
X009625Y014511D01*
X009780Y014666D02*
X010098Y014666D01*
X009999Y014765D02*
X009879Y014765D01*
X009889Y014863D02*
X009989Y014863D01*
X009989Y014962D02*
X009889Y014962D01*
X009889Y015060D02*
X009989Y015060D01*
X010000Y015159D02*
X009878Y015159D01*
X009779Y015257D02*
X010099Y015257D01*
X010197Y015356D02*
X009681Y015356D01*
X009625Y015511D02*
X009889Y015775D01*
X009889Y016148D01*
X009625Y016411D01*
X009253Y016411D01*
X008989Y016148D01*
X008989Y015775D01*
X009253Y015511D01*
X009625Y015511D01*
X009667Y015553D02*
X010211Y015553D01*
X010112Y015652D02*
X009766Y015652D01*
X009864Y015750D02*
X010014Y015750D01*
X009989Y015849D02*
X009889Y015849D01*
X009889Y015947D02*
X009989Y015947D01*
X009989Y016046D02*
X009889Y016046D01*
X009889Y016144D02*
X009989Y016144D01*
X010084Y016243D02*
X009794Y016243D01*
X009695Y016341D02*
X010183Y016341D01*
X009183Y016341D02*
X008695Y016341D01*
X008794Y016243D02*
X009084Y016243D01*
X008989Y016144D02*
X008889Y016144D01*
X008889Y016046D02*
X008989Y016046D01*
X008989Y015947D02*
X008889Y015947D01*
X008889Y015849D02*
X008989Y015849D01*
X009014Y015750D02*
X008864Y015750D01*
X008766Y015652D02*
X009112Y015652D01*
X009211Y015553D02*
X008667Y015553D01*
X008681Y015356D02*
X009197Y015356D01*
X009099Y015257D02*
X008779Y015257D01*
X008878Y015159D02*
X009000Y015159D01*
X008989Y015060D02*
X008889Y015060D01*
X008889Y014962D02*
X008989Y014962D01*
X008989Y014863D02*
X008889Y014863D01*
X008879Y014765D02*
X008999Y014765D01*
X009098Y014666D02*
X008780Y014666D01*
X008682Y014568D02*
X009196Y014568D01*
M02*
