%
M48
M72
T01C0.0140
T02C0.0320
T03C0.0350
T04C0.0360
T05C0.0440
T06C0.0710
T07C0.1000
%
T01
X614Y536
X924Y266
X1147Y415
X1174Y696
X964Y946
X834Y1006
X924Y1186
X1004Y1176
X1134Y1256
X1134Y1316
T02
X674Y887
X674Y745
X815Y887
T03
X1094Y246
X1194Y246
T04
X444Y1496
X444Y1596
X544Y1596
X544Y1496
X644Y1496
X644Y1596
X744Y1596
X744Y1496
X844Y1496
X844Y1596
X944Y1596
X944Y1496
X1044Y1496
X1044Y1596
X1194Y1146
X1194Y1046
X1094Y946
X1094Y846
X1094Y746
X1094Y646
T05
X494Y1093
T06
X1060Y527
T07
X291Y816
X744Y363
X1197Y816
X744Y1269
M30
