G75*
G70*
%OFA0B0*%
%FSLAX24Y24*%
%IPPOS*%
%LPD*%
%AMOC8*
5,1,8,0,0,1.08239X$1,22.5*
%
%ADD10R,0.0672X0.0318*%
%ADD11R,0.0672X0.0672*%
%ADD12R,0.0791X0.0712*%
%ADD13R,0.0712X0.0791*%
%ADD14R,0.0987X0.0830*%
%ADD15OC8,0.0860*%
%ADD16OC8,0.0760*%
%ADD17C,0.0144*%
%ADD18C,0.1206*%
%ADD19C,0.0240*%
%ADD20C,0.0360*%
%ADD21C,0.0500*%
D10*
X010845Y012235D03*
X010845Y011979D03*
X010845Y011723D03*
X010845Y011467D03*
X010845Y011211D03*
X010845Y010955D03*
X010845Y010699D03*
X008562Y010699D03*
X008562Y010955D03*
X008562Y011211D03*
X008562Y011467D03*
X008562Y011723D03*
X008562Y011979D03*
X008562Y012235D03*
D11*
X008539Y002775D03*
X008539Y001948D03*
D12*
X007839Y002027D03*
X007839Y002696D03*
D13*
X007674Y004561D03*
X007674Y005261D03*
X007674Y005961D03*
X007004Y005961D03*
X007004Y005261D03*
X007004Y004561D03*
X005874Y004561D03*
X005204Y004561D03*
X005204Y005961D03*
X005874Y005961D03*
X007004Y010561D03*
X007674Y010561D03*
X006874Y011761D03*
X006204Y011761D03*
X009404Y010051D03*
X010074Y010051D03*
D14*
X003568Y002261D03*
X005930Y002261D03*
D15*
X010939Y002461D03*
X011939Y002461D03*
D16*
X010939Y006461D03*
X010939Y007461D03*
X010939Y008461D03*
X010939Y009461D03*
X011939Y010461D03*
X011939Y011461D03*
X010439Y014961D03*
X010439Y015961D03*
X009439Y015961D03*
X009439Y014961D03*
X008439Y014961D03*
X008439Y015961D03*
X007439Y015961D03*
X007439Y014961D03*
X006439Y014961D03*
X006439Y015961D03*
X005439Y015961D03*
X005439Y014961D03*
X004439Y014961D03*
X004439Y015961D03*
D17*
X006689Y009081D02*
X006617Y009153D01*
X006855Y009153D01*
X007023Y008985D01*
X007023Y008747D01*
X006855Y008579D01*
X006617Y008579D01*
X006449Y008747D01*
X006449Y008985D01*
X006617Y009153D01*
X006662Y009045D01*
X006810Y009045D01*
X006915Y008940D01*
X006915Y008792D01*
X006810Y008687D01*
X006662Y008687D01*
X006557Y008792D01*
X006557Y008940D01*
X006662Y009045D01*
X006706Y008937D01*
X006766Y008937D01*
X006807Y008896D01*
X006807Y008836D01*
X006766Y008795D01*
X006706Y008795D01*
X006665Y008836D01*
X006665Y008896D01*
X006706Y008937D01*
X006689Y007667D02*
X006617Y007739D01*
X006855Y007739D01*
X007023Y007571D01*
X007023Y007333D01*
X006855Y007165D01*
X006617Y007165D01*
X006449Y007333D01*
X006449Y007571D01*
X006617Y007739D01*
X006662Y007631D01*
X006810Y007631D01*
X006915Y007526D01*
X006915Y007378D01*
X006810Y007273D01*
X006662Y007273D01*
X006557Y007378D01*
X006557Y007526D01*
X006662Y007631D01*
X006706Y007523D01*
X006766Y007523D01*
X006807Y007482D01*
X006807Y007422D01*
X006766Y007381D01*
X006706Y007381D01*
X006665Y007422D01*
X006665Y007482D01*
X006706Y007523D01*
X008103Y009081D02*
X008031Y009153D01*
X008269Y009153D01*
X008437Y008985D01*
X008437Y008747D01*
X008269Y008579D01*
X008031Y008579D01*
X007863Y008747D01*
X007863Y008985D01*
X008031Y009153D01*
X008076Y009045D01*
X008224Y009045D01*
X008329Y008940D01*
X008329Y008792D01*
X008224Y008687D01*
X008076Y008687D01*
X007971Y008792D01*
X007971Y008940D01*
X008076Y009045D01*
X008120Y008937D01*
X008180Y008937D01*
X008221Y008896D01*
X008221Y008836D01*
X008180Y008795D01*
X008120Y008795D01*
X008079Y008836D01*
X008079Y008896D01*
X008120Y008937D01*
D18*
X007439Y012689D03*
X002911Y008161D03*
X007439Y003634D03*
X011967Y008161D03*
D19*
X005299Y011010D02*
X005419Y011130D01*
X005419Y010732D01*
X005139Y010452D01*
X004741Y010452D01*
X004461Y010732D01*
X004461Y011130D01*
X004741Y011410D01*
X005139Y011410D01*
X005419Y011130D01*
X005239Y011055D01*
X005239Y010807D01*
X005064Y010632D01*
X004816Y010632D01*
X004641Y010807D01*
X004641Y011055D01*
X004816Y011230D01*
X005064Y011230D01*
X005239Y011055D01*
X005059Y010981D01*
X005059Y010881D01*
X004990Y010812D01*
X004890Y010812D01*
X004821Y010881D01*
X004821Y010981D01*
X004890Y011050D01*
X004990Y011050D01*
X005059Y010981D01*
D20*
X011136Y005392D02*
X011316Y005572D01*
X011316Y004976D01*
X010895Y004555D01*
X010299Y004555D01*
X009878Y004976D01*
X009878Y005572D01*
X010299Y005993D01*
X010895Y005993D01*
X011316Y005572D01*
X011046Y005460D01*
X011046Y005088D01*
X010783Y004825D01*
X010411Y004825D01*
X010148Y005088D01*
X010148Y005460D01*
X010411Y005723D01*
X010783Y005723D01*
X011046Y005460D01*
X010776Y005348D01*
X010776Y005200D01*
X010671Y005095D01*
X010523Y005095D01*
X010418Y005200D01*
X010418Y005348D01*
X010523Y005453D01*
X010671Y005453D01*
X010776Y005348D01*
D21*
X011469Y004151D03*
X011739Y006961D03*
X009639Y009461D03*
X008339Y010061D03*
X009239Y011861D03*
X010039Y011761D03*
X011339Y012561D03*
X011339Y013161D03*
X006139Y005361D03*
X009239Y002661D03*
M02*
